<?xml version="1.0" encoding="UTF-8" standalone="no"?> <svg width="512" height="512" viewBox="0 0 512 512" fill="none" xmlns="http://www.w3.org/2000/svg">
<path d="M36 83.9984C64 19.9984 228 7.99842 256 83.9984C232 151.998 64 151.998 36 83.9984Z" fill="#55AC37"/>
<path d="M476 84.5951C448 20.5951 284 8.5951 256 84.5951C280 152.595 448 152.595 476 84.5951Z" fill="#55AC37"/>
<path d="M40 68.5537C67.4909 24.0732 228.509 15.7331 256 68.5537C232.436 115.814 67.4909 115.814 40 68.5537Z" fill="#9ED44A"/>
<path d="M480 68.5537C451.491 24.0732 284.509 15.7331 256 68.5537C280.436 115.814 451.491 115.814 480 68.5537Z" fill="#9ED44A"/>
<path d="M480 255.999C480 285.415 474.206 314.543 462.949 341.72C451.692 368.897 435.192 393.591 414.392 414.391C393.592 435.191 368.898 451.691 341.721 462.948C314.544 474.205 285.416 479.999 256 479.999C226.584 479.999 197.456 474.205 170.279 462.948C143.102 451.691 118.408 435.191 97.6081 414.391C76.8077 393.591 60.308 368.897 49.051 341.72C37.7939 314.543 32 285.415 32 255.999L256 255.999H480Z" fill="#67A5D2"/>
<path d="M392 255.999C392 280.162 387.241 304.089 377.994 326.413C368.747 348.737 355.194 369.021 338.108 386.107C321.022 403.193 300.738 416.746 278.414 425.993C256.09 435.24 232.163 439.999 208 439.999C183.837 439.999 159.91 435.24 137.586 425.993C115.262 416.746 94.9783 403.193 77.8923 386.107C60.8064 369.021 47.253 348.737 38.0062 326.413C28.7593 304.089 24 280.162 24 255.999L208 255.999H392Z" fill="#87D1EE"/>
<path d="M128 255.999H31.9998C30.6665 273.332 32.7998 317.599 51.9998 355.999C71.1998 394.399 105.333 425.332 120 435.999L138.868 428.924C147.238 425.785 153.914 419.287 157.279 411.005L186.107 340.043C194.655 319.001 179.172 295.999 156.46 295.999H144C135.163 295.999 128 288.836 128 279.999V255.999Z" fill="#9ED44A"/>
<path d="M312 279.999V255.999H452L432 323.999C417.333 338.666 381.6 372.799 372 375.999C362.4 379.199 354.667 369.332 352 363.999L348 303.999H336C322.745 303.999 312 293.254 312 279.999Z" fill="#55AC37"/>
<mask id="mask0" mask-type="alpha" maskUnits="userSpaceOnUse" x="312" y="255" width="140" height="122">
<path d="M312 279.999V255.999H452L432 323.999C417.333 338.666 381.6 372.799 372 375.999C362.4 379.199 354.667 369.332 352 363.999L348 303.999H336C322.745 303.999 312 293.254 312 279.999Z" fill="#8EC040"/>
</mask>
<g mask="url(#mask0)">
<path d="M392 255.999C392 280.162 387.241 304.089 377.994 326.413C368.747 348.737 355.194 369.021 338.108 386.107C321.022 403.193 300.738 416.746 278.414 425.993C256.09 435.24 232.163 439.999 208 439.999C183.837 439.999 159.91 435.24 137.586 425.993C115.262 416.746 94.9783 403.193 77.8923 386.107C60.8064 369.021 47.253 348.737 38.0062 326.413C28.7593 304.089 24 280.162 24 255.999L208 255.999H392Z" fill="#9ED44A"/>
</g>
<path fill-rule="evenodd" clip-rule="evenodd" d="M265.913 81.7674C281.778 52.3368 322.105 38.7312 365.954 40.0902C387.508 40.7583 409.072 45.0689 427.46 52.3665C445.946 59.7037 460.601 69.8057 469.138 81.6186C470.176 83.0546 470.176 84.9432 469.138 86.3791C460.601 98.1921 445.946 108.294 427.46 115.631C409.072 122.929 387.508 127.239 365.954 127.908C322.105 129.267 281.778 115.661 265.913 86.2304C265.166 84.8443 265.166 83.1534 265.913 81.7674ZM482.106 72.2469C471.172 57.1175 453.517 45.4945 433.362 37.495C413.107 29.456 389.696 24.8184 366.45 24.0979C323.584 22.7693 278.239 34.848 256 67.332C233.761 34.848 188.416 22.7693 145.55 24.0979C122.304 24.8184 98.8933 29.456 78.6382 37.495C58.4827 45.4945 40.8277 57.1175 29.894 72.2469C24.8137 79.2767 24.8137 88.721 29.894 95.7508C40.8277 110.88 58.4827 122.503 78.6382 130.503C98.8933 138.542 122.304 143.179 145.55 143.9C183.777 145.085 223.975 135.607 248 110.505V247.999H32C27.5817 247.999 24 251.581 24 255.999C24 286.466 30.0009 316.634 41.6599 344.781C53.319 372.929 70.408 398.504 91.9512 420.048C113.494 441.591 139.07 458.68 167.217 470.339C195.365 481.998 225.533 487.999 256 487.999C286.467 487.999 316.635 481.998 344.783 470.339C372.93 458.68 398.506 441.591 420.049 420.048C441.592 398.505 458.681 372.929 470.34 344.781C481.999 316.634 488 286.466 488 255.999C488 251.581 484.418 247.999 480 247.999H264V110.505C288.025 135.607 328.223 145.085 366.45 143.9C389.696 143.179 413.107 138.542 433.362 130.503C453.517 122.503 471.172 110.88 482.106 95.7508C487.186 88.721 487.186 79.2767 482.106 72.2469ZM56.442 338.659C46.6086 314.919 41.0983 289.635 40.1482 263.999H120V279.999C120 293.254 130.745 303.999 144 303.999H157.575C175.167 303.999 186.781 322.3 179.291 338.218L148.684 403.258C143.294 414.71 132.361 422.415 119.966 423.781C114.153 419.068 108.577 414.046 103.265 408.734C83.2075 388.677 67.297 364.865 56.442 338.659ZM136 279.999V263.999L304 263.999V277.332C304 296.478 319.521 311.999 338.667 311.999C341.612 311.999 344 314.387 344 317.332V358.709C344 378.833 367.278 390.021 382.993 377.45L419.393 348.33C432.21 338.076 441.139 323.75 444.7 307.726L454.417 263.999H471.852C470.902 289.635 465.391 314.919 455.558 338.659C444.703 364.865 428.793 388.677 408.735 408.734C388.678 428.791 364.866 444.702 338.66 455.557C312.453 466.412 284.366 471.999 256 471.999C227.634 471.999 199.547 466.412 173.34 455.557C160.379 450.188 148.004 443.583 136.379 435.851C147.958 430.93 157.603 421.881 163.161 410.07L193.768 345.031C206.252 318.501 186.896 287.999 157.575 287.999H144C139.582 287.999 136 284.417 136 279.999ZM438.027 263.999H320V277.332C320 287.642 328.357 295.999 338.667 295.999C350.449 295.999 360 305.55 360 317.332V358.709C360 365.417 367.759 369.146 372.998 364.956L409.398 335.836C419.367 327.86 426.312 316.718 429.081 304.255L438.027 263.999ZM146.046 40.0902C189.895 38.7312 230.222 52.3368 246.087 81.7674C246.834 83.1534 246.834 84.8443 246.087 86.2304C230.222 115.661 189.895 129.267 146.046 127.908C124.492 127.239 102.928 122.929 84.5405 115.631C66.0538 108.294 51.399 98.1921 42.8621 86.3791C41.8244 84.9432 41.8244 83.0546 42.8621 81.6186C51.399 69.8057 66.0538 59.7037 84.5405 52.3665C102.928 45.0689 124.492 40.7583 146.046 40.0902Z" fill="black"/>
<path fill-rule="evenodd" clip-rule="evenodd" d="M73.4704 280.554C77.8195 279.776 81.9764 282.67 82.7552 287.019C85.3739 301.645 89.8343 315.88 96.0297 329.385C97.872 333.401 96.1099 338.15 92.0941 339.992C88.0782 341.835 83.3292 340.073 81.487 336.057C74.7283 321.324 69.8625 305.794 67.0056 289.839C66.2269 285.49 69.1213 281.333 73.4704 280.554Z" fill="white"/>
</svg>
