<?xml version="1.0" encoding="utf-8"?>
<!-- Generator: Adobe Illustrator 18.0.0, SVG Export Plug-In . SVG Version: 6.00 Build 0)  -->
<!DOCTYPE svg PUBLIC "-//W3C//DTD SVG 1.1//EN" "http://www.w3.org/Graphics/SVG/1.1/DTD/svg11.dtd">
<svg version="1.1" id="Layer_1" xmlns="http://www.w3.org/2000/svg" xmlns:xlink="http://www.w3.org/1999/xlink" x="0px" y="0px"
	 viewBox="0 0 27 36.1" enable-background="new 0 0 27 36.1" xml:space="preserve">
<g>
	<path fill="#AAD3C7" d="M13.2,22.5l0.3,0l3.5,0c0.4,0,0.7-0.3,0.7-0.7l0-4.1c0-0.4-0.3-0.7-0.7-0.7l-6.9,0c-0.4,0-0.7,0.3-0.7,0.7
		l0,4.1c0,0.4,0.3,0.7,0.7,0.7l0.6,0l4.2-4.2c0.4-0.4,0.9-0.4,1.3,0c0.4,0.4,0.4,0.9,0,1.3L13.2,22.5z"/>
	<path fill="#616E7D" d="M6.8,14.5c-0.4,0-0.8,0.3-0.8,0.8l0,9.4c0,0.4,0.3,0.8,0.8,0.8l13.4,0c0.4,0,0.8-0.3,0.8-0.8l0-9.4
		c0-0.4-0.3-0.8-0.8-0.8L6.8,14.5z M17.6,21.8c0,0.4-0.3,0.7-0.7,0.7l-3.5,0l-0.3,0l3-3c0.4-0.4,0.4-0.9,0-1.3
		c-0.4-0.4-0.9-0.4-1.3,0l-4.2,4.2l-0.6,0c-0.4,0-0.7-0.3-0.7-0.7l0-4.1c0-0.4,0.3-0.7,0.7-0.7l6.9,0c0.4,0,0.7,0.3,0.7,0.7
		L17.6,21.8z M19.1,18.5c-0.3,0-0.5-0.2-0.5-0.5c0-0.3,0.2-0.5,0.5-0.5c0.3,0,0.5,0.2,0.5,0.5C19.6,18.2,19.4,18.5,19.1,18.5z
		 M19.1,17.1c-0.3,0-0.5-0.2-0.5-0.5c0-0.3,0.2-0.5,0.5-0.5c0.3,0,0.5,0.2,0.5,0.5C19.6,16.9,19.4,17.1,19.1,17.1z"/>
	<path fill="#616E7D" d="M3.2,14.5c-0.2,0-0.3,0.1-0.3,0.3l0,9.2c0,0.2,0.1,0.3,0.3,0.3l1.9,0c0.2,0,0.3-0.1,0.3-0.3l0-9.2
		c0-0.2-0.1-0.3-0.3-0.3L3.2,14.5z"/>
	<path fill="#616E7D" d="M4.1,26.3c0.7,0,1.2,0.5,1.2,1.2c0,0.4,0.3,0.8,0.8,0.8c0.4,0,0.8-0.3,0.8-0.8c0-1.5-1.2-2.7-2.7-2.7
		c-1.5,0-2.7,1.2-2.7,2.7c0,1.5,1.2,2.7,2.7,2.7c0.4,0,0.8-0.3,0.8-0.8c0-0.4-0.3-0.8-0.8-0.8c-0.7,0-1.2-0.5-1.2-1.2
		C2.9,26.8,3.5,26.3,4.1,26.3z"/>
	<path fill="#616E7D" d="M22,14.4c-0.2,0-0.3,0.1-0.3,0.3l0,9.2c0,0.2,0.1,0.3,0.3,0.3l1.9,0c0.2,0,0.3-0.1,0.3-0.3l0-9.2
		c0-0.2-0.1-0.3-0.3-0.3L22,14.4z"/>
	<path fill="#616E7D" d="M22.9,28.7c-0.4,0-0.8,0.3-0.8,0.8c0,0.4,0.3,0.8,0.8,0.8c1.5,0,2.7-1.2,2.7-2.7c0-1.5-1.2-2.7-2.7-2.7
		c-1.5,0-2.7,1.2-2.7,2.7c0,0.4,0.3,0.8,0.8,0.8c0.4,0,0.8-0.3,0.8-0.8c0-0.7,0.5-1.2,1.2-1.2c0.7,0,1.2,0.5,1.2,1.2
		C24.1,28.2,23.6,28.8,22.9,28.7z"/>
	<path fill="#616E7D" d="M9.4,26.1c-0.2,0-0.3,0.1-0.3,0.3l0,4.3c0,0.2,0.1,0.3,0.3,0.3l2.7,0c0.2,0,0.3-0.1,0.3-0.3l0-4.3
		c0-0.2-0.1-0.3-0.3-0.3L9.4,26.1z"/>
	<path fill="#616E7D" d="M15,26.2c-0.2,0-0.3,0.1-0.3,0.3l0,4.3c0,0.2,0.1,0.3,0.3,0.3l2.7,0c0.2,0,0.3-0.1,0.3-0.3l0-4.3
		c0-0.2-0.1-0.3-0.3-0.3L15,26.2z"/>
	<path fill="#616E7D" d="M8.1,31.8c-0.2,0-0.3,0.2-0.3,0.5l0,1.6c0,0.3,0.1,0.5,0.3,0.5l4.1,0c0.2,0,0.3-0.2,0.3-0.5l0-1.6
		c0-0.3-0.1-0.5-0.3-0.5L8.1,31.8z"/>
	<path fill="#616E7D" d="M14.8,31.9c-0.2,0-0.3,0.2-0.3,0.5l0,1.6c0,0.3,0.1,0.5,0.3,0.5l4.1,0c0.2,0,0.3-0.2,0.3-0.5l0-1.6
		c0-0.3-0.1-0.5-0.3-0.5L14.8,31.9z"/>
	<path fill="#616E7D" d="M10.4,1.6l-0.3,0c-0.2,0-0.3,0.1-0.3,0.3l0,1.7L8,3.6h0H7.9c-0.5,0-0.9,0.4-0.9,0.9L7,13
		c0,0.5,0.4,0.9,0.8,0.9l11.5,0c0.5,0,0.9-0.4,0.9-0.9l0-8.6c0-0.5-0.4-0.9-0.9-0.9l-0.4,0l-1.5,0l0-1.7c0-0.2-0.1-0.3-0.3-0.3
		l-0.3,0c-0.2,0-0.3,0.1-0.3,0.3l0,1.7l-5.8,0l0-1.7C10.7,1.7,10.6,1.6,10.4,1.6z M9.5,6.6c0.6,0,1.1,0.5,1.1,1.1
		c0,0.6-0.5,1.1-1.1,1.1c-0.6,0-1.1-0.5-1.1-1.1C8.4,7.1,8.9,6.6,9.5,6.6z M17.7,6.6c0.6,0,1.1,0.5,1.1,1.1c0,0.6-0.5,1.1-1.1,1.1
		c-0.6,0-1.1-0.5-1.1-1.1C16.6,7.1,17.1,6.6,17.7,6.6z M19.8,10.5v0.3H7.5v-0.3H19.8z"/>
	<path fill="#616E7D" d="M4.4,7l0,3.4c0,0.2,0.1,0.3,0.3,0.3l1.3,0v-4l-1.3,0C4.5,6.7,4.4,6.8,4.4,7z"/>
	<path fill="#AAD3C7" d="M6,6.7v4l0.4,0c0.2,0,0.3-0.1,0.3-0.3l0-3.4c0-0.2-0.1-0.3-0.3-0.3L6,6.7z"/>
	<path fill="#616E7D" d="M21.4,6.7v4l1.3,0c0.2,0,0.3-0.1,0.3-0.3L23,7c0-0.2-0.1-0.3-0.3-0.3L21.4,6.7z"/>
	<path fill="#AAD3C7" d="M20.7,7l0,3.4c0,0.2,0.1,0.3,0.3,0.3l0.4,0v-4l-0.4,0C20.8,6.7,20.7,6.8,20.7,7z"/>
	<circle fill="#FFFFFF" cx="9.5" cy="7.7" r="1.1"/>
	<circle fill="#FFFFFF" cx="17.7" cy="7.7" r="1.1"/>
	<rect x="7.5" y="10.5" fill="#FFFFFF" width="12.4" height="0.3"/>
	<circle fill="#82BFAB" cx="19.1" cy="16.6" r="0.5"/>
	<circle fill="#82BFAB" cx="19.1" cy="18" r="0.5"/>
</g>
</svg>
